<svg xmlns="http://www.w3.org/2000/svg" xmlns:xlink="http://www.w3.org/1999/xlink" width="940" height="962" viewBox="0 0 940 962">
  <defs>
    <clipPath id="clip-path">
      <rect id="Retângulo_1061" data-name="Retângulo 1061" width="940" height="962" transform="translate(9892 3528)" fill="#fff" stroke="#707070" stroke-width="1"/>
    </clipPath>
    <clipPath id="clip-path-2">
      <rect id="SVGID" width="306.192" height="220.113" fill="none"/>
    </clipPath>
    <clipPath id="clip-path-3">
      <rect id="SVGID-2" data-name="SVGID" width="306.192" height="220.114" fill="none"/>
    </clipPath>
    <clipPath id="clip-path-4">
      <rect id="SVGID-3" data-name="SVGID" width="199.931" height="15.392" fill="none"/>
    </clipPath>
  </defs>
  <g id="Grupo_de_máscara_11" data-name="Grupo de máscara 11" transform="translate(-9892 -3528)" clip-path="url(#clip-path)">
    <g id="Grupo_5656" data-name="Grupo 5656" transform="translate(8912)">
      <path id="blob_3_" data-name="blob (3)" d="M640.807,156.934c97.915,77.615,237.622,109.855,293.744,192.247S963.806,563.518,884.4,630.386c-80,67.466-211.949,69.854-323,94.332-111.049,25.076-201.2,71.645-291.356,62.689-89.556-8.359-179.709-72.242-250.16-162.395-70.451-90.75-121.2-207.77-102.691-312.252C-64.3,207.682,23.468,115.141,120.785,37.526s203.591-140.9,284.788-111.049S542.893,79.318,640.807,156.934Z" transform="translate(1652.543 4594.112) rotate(-137)" fill="#242437"/>
      <g id="Grupo_5590" data-name="Grupo 5590" transform="translate(3178.61 3870.981) rotate(180)">
        <g id="Grupo_23" data-name="Grupo 23" transform="translate(1524 216)">
          <g id="Grupo_22" data-name="Grupo 22" transform="translate(0 0)">
            <path id="Caminho_15" data-name="Caminho 15" d="M-9.5,115.616V89.309A25.584,25.584,0,0,0,16.053,63.754,25.585,25.585,0,0,0-9.5,38.2V11.891A51.923,51.923,0,0,1,42.359,63.754,51.921,51.921,0,0,1-9.5,115.616Z" transform="translate(9.504 -11.891)" fill="#f0a977"/>
          </g>
          <circle id="Elipse_2" data-name="Elipse 2" cx="5.684" cy="5.684" r="5.684" transform="translate(51.711 86.942)" fill="#fff"/>
        </g>
      </g>
      <g id="Grupo_5604" data-name="Grupo 5604" transform="translate(-39.79 -371.932)">
        <path id="Caminho_11325" data-name="Caminho 11325" d="M330.222,490.375s27.383-52.936,19.512-78.2c-12.573-40.339-48.976-32.893-36.955-66.535s-26.369-37.978-48.986-54.236S203.327,269,198.526,286.465s33.345,10.586,34.81,32.06S215,364.567,238.51,373.164s44.724-6.3,28.693,24.187-20.414,96.13,63.02,93.025" transform="translate(1137.508 3840.759)" fill="#16949e"/>
        <path id="Caminho_11326" data-name="Caminho 11326" d="M316.615,464.1a.722.722,0,0,1-.716-.639c-.185-1.593-19.469-159.64-109.2-179.252a.72.72,0,0,1-.55-.858.732.732,0,0,1,.858-.55c26.2,5.726,63.02,27.354,89.631,97.869A393.093,393.093,0,0,1,317.333,463.3a.721.721,0,0,1-.635.8c-.027,0-.056,0-.083,0" transform="translate(1144.924 3847.073)" fill="#fceee7"/>
        <path id="Caminho_11327" data-name="Caminho 11327" d="M284.275,387.524a.725.725,0,0,1-.664-.437c-13.3-30.985-46.425-37.193-46.758-37.251a.721.721,0,1,1,.252-1.42c.333.058,32.737,6.111,46.9,36.041,1.562-7.611,7.09-33.013,13.978-46.765a.722.722,0,0,1,1.291.647c-8.035,16.042-14.232,48.276-14.294,48.6a.721.721,0,0,1-.629.583.557.557,0,0,1-.079,0" transform="translate(1172.758 3897.439)" fill="#fceee7"/>
        <path id="Caminho_11328" data-name="Caminho 11328" d="M273.013,356.854a.724.724,0,0,1-.675-.466c-4.777-12.549-43.589-27.317-43.979-27.465a.722.722,0,0,1,.508-1.351c1.482.558,33.386,12.706,42.781,24.816-1.433-9.445-4.121-34,3.448-50.209a.721.721,0,1,1,1.306.61c-9.287,19.891-2.748,52.868-2.68,53.2a.724.724,0,0,1-.508.837.71.71,0,0,1-.2.029" transform="translate(1165.027 3864.607)" fill="#fceee7"/>
        <path id="Caminho_11329" data-name="Caminho 11329" d="M258.741,324.332a.721.721,0,0,1-.6-.321c-5.258-7.867-40.026-26.4-40.376-26.58a.722.722,0,0,1,.677-1.276c1.218.648,25.607,13.647,36.48,22.6-4.3-7.373-11.352-20.837-11.246-29.68a.691.691,0,0,1,.731-.712.719.719,0,0,1,.712.729c-.144,12,14.082,33.9,14.224,34.123a.723.723,0,0,1-.2,1,.74.74,0,0,1-.4.119" transform="translate(1155.317 3852.22)" fill="#fceee7"/>
        <path id="Caminho_11330" data-name="Caminho 11330" d="M128.791,356.221H36.909s-2.584-2.928,7.048-4.956,13.507,5.88,22.417-13.357c3.844-8.3,13.2-11.912,21.778-10.169s12.454,17.384,18.374,15.161,2.655-14.22,16.031-15.188,11.383,14.034,15.887,18.315,6.107-5.886,10.923-3.746,3.579,8.368,8.21,8.368,13.947,1.747,17.062,3.964-45.848,1.608-45.848,1.608" transform="translate(988.264 3888.214)" fill="#e0a372"/>
        <path id="Caminho_11331" data-name="Caminho 11331" d="M566.125,408.832H474.243s-2.584-2.928,7.048-4.956,13.507,5.88,22.417-13.357c3.844-8.3,13.2-11.913,21.778-10.17s12.454,17.385,18.374,15.161,2.655-14.219,16.031-15.186,11.383,14.034,15.887,18.313,6.107-5.884,10.923-3.744,3.579,8.368,8.21,8.368,13.947,1.745,17.063,3.964-45.848,1.608-45.848,1.608" transform="translate(1392.373 3936.826)" fill="#e0a372"/>
        <path id="Caminho_11332" data-name="Caminho 11332" d="M336.476,354.961s116.448-51.456,137.585,28.5S453.443,471.729,532.117,528.2C602.655,578.837,488.7,683.47,488.7,683.47S296.158,519.977,336.476,354.961" transform="translate(1260.233 3898.706)" fill="#0d1321"/>
        <path id="Caminho_11333" data-name="Caminho 11333" d="M353.166,499.823s-33.842-49.059-29.22-75.108c7.384-41.605,44.435-38.812,28.266-70.668s21.368-41,41.753-59.982,57.157-29.859,64.122-13.139-31.745,14.707-30.486,36.2,24,43.362,1.76,54.856-45.163-.608-25.413,27.614,32.378,92.786-50.783,100.23" transform="translate(1253.385 3837.728)" fill="#e0a372"/>
        <path id="Caminho_11334" data-name="Caminho 11334" d="M341.109,473.076a.721.721,0,0,1-.722-.712,393.206,393.206,0,0,1,10.1-84.578c9.66-40.462,30.788-92.113,76.569-108.4a.722.722,0,0,1,.485,1.36c-86.549,30.781-85.733,189.992-85.714,191.6a.722.722,0,0,1-.714.729Z" transform="translate(1268.976 3843.897)" fill="#fceee7"/>
        <path id="Caminho_11335" data-name="Caminho 11335" d="M351.507,389.3a.717.717,0,0,1-.685-.5c-.1-.314-10.317-31.508-20.31-46.407a.722.722,0,0,1,1.2-.8c8.568,12.776,17.257,37.274,19.764,44.628,10.28-31.477,41.661-41.569,41.984-41.671a.721.721,0,0,1,.427,1.378c-.323.1-32.395,10.438-41.686,42.854a.719.719,0,0,1-.679.521Z" transform="translate(1259.74 3901.109)" fill="#fceee7"/>
        <path id="Caminho_11336" data-name="Caminho 11336" d="M351.895,358.33a.748.748,0,0,1-.112-.01.719.719,0,0,1-.608-.766c.025-.337,2.347-33.884-9.372-52.435a.722.722,0,0,1,1.222-.772c9.551,15.123,9.982,39.824,9.753,49.372,7.792-13.2,37.909-29.27,39.308-30.013a.722.722,0,1,1,.675,1.276c-.369.2-37.007,19.746-40.166,32.795a.719.719,0,0,1-.7.552" transform="translate(1270.183 3866.685)" fill="#fceee7"/>
        <path id="Caminho_11337" data-name="Caminho 11337" d="M356.764,325.525a.729.729,0,0,1-.319-.073.722.722,0,0,1-.329-.964c.115-.235,11.463-23.758,9.807-35.643a.717.717,0,0,1,.614-.814.708.708,0,0,1,.814.614c1.224,8.76-4.075,23.006-7.411,30.86,9.657-10.251,32.212-26.223,33.34-27.019a.72.72,0,1,1,.829,1.178c-.323.231-32.476,23-36.7,31.464a.723.723,0,0,1-.646.4" transform="translate(1283.442 3851.912)" fill="#fceee7"/>
        <path id="Caminho_11338" data-name="Caminho 11338" d="M313.127,327.123s-9.489-8.618-7.864-19.059,7.04-6.692,9.557-9.228c5.938-5.989,14.732-10.573,25.322-4s1.079,14.047,6.459,14.482,9.589-1.616,9.093,6.451-11.065,8.246-9.449,12.069,2.892,9.385-5.4,12.812c-9.056,3.744-26.619,3.9-27.714-13.532" transform="translate(1236.348 3855.232)" fill="#0d1321"/>
        <path id="Caminho_11339" data-name="Caminho 11339" d="M281.3,333.188a2.892,2.892,0,0,1-2.784-3.654l7.546-27.365a2.886,2.886,0,1,1,5.564,1.535l-7.546,27.364a2.888,2.888,0,0,1-2.78,2.12" transform="translate(1211.709 3863.022)" fill="#0d1321"/>
        <path id="Caminho_11340" data-name="Caminho 11340" d="M313.172,306.074A18.542,18.542,0,1,1,300.2,283.282a18.543,18.543,0,0,1,12.968,22.792" transform="translate(1210.17 3846.915)" fill="#16949e"/>
        <path id="Caminho_11341" data-name="Caminho 11341" d="M296.226,322.5a20.469,20.469,0,1,1,19.725-15.052A20.5,20.5,0,0,1,296.226,322.5m-.021-37.093a16.636,16.636,0,1,0,4.412.6,16.655,16.655,0,0,0-4.412-.6" transform="translate(1209.248 3845.939)" fill="#0d1321"/>
        <rect id="Retângulo_1003" data-name="Retângulo 1003" width="30.294" height="10.719" transform="translate(1484.737 4203.005) rotate(-74.649)" fill="#c82b3b"/>
        <path id="Caminho_11342" data-name="Caminho 11342" d="M269.886,392.823s-8.756-38.051,9.068-71.582c9.1-17.12,21.676-8.916,19.752-6.288s-10.986,2.02-13.634,13.137c-2.251,9.455-9.47,48.178,2.811,49.007s21.172-30.309,51.216-35.848l9.48,29.807s-64.363,55.445-78.693,21.766" transform="translate(1201.845 3872.842)" fill="#e2876a"/>
        <path id="Caminho_11343" data-name="Caminho 11343" d="M307.641,328.533s49.955-9.212,58.292,0,17.8,60.372,17.8,60.372H303.081s-4.991-55.475,4.56-60.372" transform="translate(1233.301 3885.56)" fill="#0d1321"/>
        <path id="Caminho_11344" data-name="Caminho 11344" d="M328.564,346.492l-15.581.854s1.389-17.5-.789-26.68c-1.514-6.376,16.743-16.589,16.743-16.589Z" transform="translate(1242.843 3866.745)" fill="#e2876a"/>
        <path id="Caminho_11345" data-name="Caminho 11345" d="M307.017,303.279s-2.89,31.065,13.307,34c10.27,1.859,20.526-23.371,12.525-35.317-4.231-6.322-26.7-5.959-25.832,1.322" transform="translate(1237.958 3860.665)" fill="#e2876a"/>
        <path id="Caminho_11346" data-name="Caminho 11346" d="M314.266,308.927a1.184,1.184,0,1,0,1.1-1.258,1.181,1.181,0,0,0-1.1,1.258" transform="translate(1244.838 3870.061)" fill="#0d1321"/>
        <path id="Caminho_11347" data-name="Caminho 11347" d="M308.4,309.212a1.184,1.184,0,1,0,1.1-1.258,1.181,1.181,0,0,0-1.1,1.258" transform="translate(1239.416 3870.324)" fill="#0d1321"/>
        <path id="Caminho_11348" data-name="Caminho 11348" d="M312.86,323.246s8.2,3.242,14.394-10.846c.951-2.161.127,8.129-4.61,13.022a35.43,35.43,0,0,1-9.893,7.321s.11-5.047.11-9.5" transform="translate(1243.439 3874.164)" fill="#d3513e"/>
        <path id="Caminho_11349" data-name="Caminho 11349" d="M315.967,311.289a2.19,2.19,0,1,0,2.043-2.33,2.192,2.192,0,0,0-2.043,2.33" transform="translate(1246.408 3871.252)" fill="#d3513e"/>
        <path id="Caminho_11350" data-name="Caminho 11350" d="M313.97,306.96c.071,1.093,1.16-.077,2.59-.171s2.661.925,2.59-.169a2.355,2.355,0,0,0-2.721-1.811c-1.43.094-2.532,1.056-2.459,2.151" transform="translate(1244.563 3867.414)" fill="#0d1321"/>
        <path id="Caminho_11351" data-name="Caminho 11351" d="M307.831,307.781c.071,1.095,1.16-.075,2.59-.169s2.661.925,2.59-.169-1.289-1.9-2.721-1.811-2.53,1.056-2.459,2.149" transform="translate(1238.891 3868.175)" fill="#0d1321"/>
        <path id="Caminho_11352" data-name="Caminho 11352" d="M307.867,312.35a2.19,2.19,0,1,0,2.043-2.33,2.19,2.19,0,0,0-2.043,2.33" transform="translate(1238.923 3872.233)" fill="#d3513e"/>
        <path id="Caminho_11353" data-name="Caminho 11353" d="M311.768,314.53a.291.291,0,0,1-.223-.1c-.312-.352-.064-3.381.2-5.861a.241.241,0,0,1,.238-.214h.027a.24.24,0,0,1,.212.265,48.144,48.144,0,0,0-.343,5.218,26.215,26.215,0,0,0,1.539-3.071.248.248,0,0,1,.316-.125.241.241,0,0,1,.125.317c-1.52,3.479-1.92,3.567-2.091,3.567" transform="translate(1242.191 3870.701)" fill="#0d1321"/>
        <path id="Caminho_11354" data-name="Caminho 11354" d="M313.977,316.645c-1.083,0-2.088-1.26-3.063-3.85a.242.242,0,0,1,.14-.31.24.24,0,0,1,.312.14c1.095,2.909,2.018,3.538,2.617,3.538l.038,0c1.351-.063,2.484-3.2,2.807-4.4a.247.247,0,0,1,.3-.169.242.242,0,0,1,.171.294c-.131.475-1.312,4.662-3.25,4.756-.023,0-.046,0-.069,0" transform="translate(1241.729 3873.683)" fill="#0d1321"/>
        <path id="Caminho_11355" data-name="Caminho 11355" d="M307.276,310.89s.158-9.99,5.757-5.63c5.433,4.231,7.989-1.576,13.541-2.778s8.47,14.95,8.389,15.434,5.262-10.409,3.04-16.125-7.971-6.405-16.316-6.6-18.559,6.272-14.411,15.7" transform="translate(1237.5 3858.53)" fill="#0d1321"/>
        <path id="Caminho_11356" data-name="Caminho 11356" d="M321.592,308.746s2.965-7.332,5.383-4.069-1.82,10.965-4.381,9.722-1-5.653-1-5.653" transform="translate(1251.177 3866.526)" fill="#e2876a"/>
        <path id="Caminho_11357" data-name="Caminho 11357" d="M322.42,311.368a.242.242,0,0,1-.233-.179c-.608-2.284-.494-3.963.339-4.993a2.775,2.775,0,0,1,2.17-.995.24.24,0,0,1,.229.252.247.247,0,0,1-.252.229,2.3,2.3,0,0,0-1.78.822c-.716.891-.8,2.467-.24,4.562a.238.238,0,0,1-.171.292.232.232,0,0,1-.062.01" transform="translate(1251.805 3867.783)" fill="#0d1321"/>
        <path id="Caminho_11358" data-name="Caminho 11358" d="M322.632,309.5l-.035,0a.241.241,0,0,1-.2-.273c.369-2.638-.123-3.132-.129-3.136a.232.232,0,0,1-.062-.327.253.253,0,0,1,.342-.065c.127.085.739.652.325,3.6a.24.24,0,0,1-.239.206" transform="translate(1252.135 3868.204)" fill="#0d1321"/>
        <path id="Caminho_11359" data-name="Caminho 11359" d="M363.938,390.9s5.27-15.552-8.924-49.088c-5.878-13.89-24.62-17.068-24.62-17.068l8.922,50.6s19.29,17.913,24.622,15.552" transform="translate(1259.744 3885.839)" fill="#e2876a"/>
        <path id="Caminho_11360" data-name="Caminho 11360" d="M341.859,366.989l27.242-2.611c-2.7-17.5-7.319-25.085-19.4-35.027-8.8-7.236-26.634-4.333-26.634-4.333s12.139,39.046,18.79,41.971" transform="translate(1252.975 3885.564)" fill="#0d1321"/>
        <path id="Caminho_11361" data-name="Caminho 11361" d="M288.676,346.366s6.186,20.225,16.691,24.487c0,0,14.463-8.627,19.481-10.946s5.126-34.169,5.126-34.169-21.52-1.882-41.3,20.628" transform="translate(1221.194 3886.726)" fill="#0d1321"/>
        <path id="Caminho_11362" data-name="Caminho 11362" d="M308.409,326.93s18.915-4.5,31.352-2.163c0,0-7.413,16.372-16.818,15.767s-14.534-13.6-14.534-13.6" transform="translate(1239.428 3885.24)" fill="#e2876a"/>
        <path id="Caminho_11363" data-name="Caminho 11363" d="M331.856,305.351c-2.913,0-5.212-2.569-7.311-4.916-2.03-2.268-3.952-4.414-6.228-4.414-.048,0-.1,0-.146,0a4.641,4.641,0,0,0-3.459,1.543c-1.939,2.217-1.6,6.092-1.593,6.132a.24.24,0,1,1-.477.044c-.017-.165-.368-4.116,1.7-6.49a5.107,5.107,0,0,1,3.806-1.711c.056,0,.114,0,.167,0,2.492,0,4.481,2.224,6.584,4.573,3.084,3.448,6,6.7,10.521,3.413a.24.24,0,0,1,.335.052.242.242,0,0,1-.054.337,6.529,6.529,0,0,1-3.848,1.435" transform="translate(1243.308 3858.857)" fill="#0d1321"/>
        <path id="Caminho_11364" data-name="Caminho 11364" d="M311.416,305.359a.237.237,0,0,1-.225-.158c-.062-.167-1.482-4.146.316-7.494a8.145,8.145,0,0,1,5.637-3.885c4.248-1.024,6.988.621,9.407,2.07,2.732,1.637,4.893,2.93,8.316-.444a.244.244,0,0,1,.341,0,.238.238,0,0,1,0,.339c-3.692,3.64-6.107,2.191-8.9.516-2.34-1.4-4.991-2.986-9.047-2.014a7.677,7.677,0,0,0-5.322,3.644c-1.7,3.153-.306,7.065-.292,7.1a.239.239,0,0,1-.142.308.209.209,0,0,1-.083.015" transform="translate(1241.453 3856.976)" fill="#0d1321"/>
        <path id="Caminho_11365" data-name="Caminho 11365" d="M313.038,301.6a.238.238,0,0,1-.233-.183c-.008-.025-.7-2.74-2.484-3.277-1.058-.317-2.307.179-3.723,1.474a.24.24,0,0,1-.323-.356c1.551-1.418,2.957-1.947,4.187-1.578,2.045.618,2.778,3.5,2.809,3.623a.238.238,0,0,1-.175.289.2.2,0,0,1-.058.008" transform="translate(1237.385 3860.732)" fill="#0d1321"/>
        <path id="Caminho_11366" data-name="Caminho 11366" d="M334.308,310.129c-1.549,0-2.857-1.924-4.125-3.786a23.477,23.477,0,0,0-1.612-2.2c-2.392-2.73-6.413-1.507-6.453-1.495a.24.24,0,1,1-.146-.458c.042-.015,4.362-1.339,6.959,1.635a24.071,24.071,0,0,1,1.651,2.243c1.212,1.782,2.469,3.606,3.781,3.575.8-.033,1.635-.8,2.476-2.274a.24.24,0,1,1,.417.239c-.941,1.655-1.88,2.476-2.874,2.517Z" transform="translate(1251.806 3864.722)" fill="#0d1321"/>
        <path id="Caminho_11367" data-name="Caminho 11367" d="M328.656,316.991c-.033,0-.064,0-.1,0-3.078-.125-6.667-6.394-6.817-6.661a.24.24,0,1,1,.418-.237c.037.062,3.606,6.3,6.42,6.417a1.961,1.961,0,0,0,1.741-1.035.241.241,0,0,1,.4.271,2.47,2.47,0,0,1-2.063,1.247" transform="translate(1251.719 3872.19)" fill="#0d1321"/>
        <path id="Caminho_11368" data-name="Caminho 11368" d="M275.862,317.706a.241.241,0,0,1-.194-.381,18.653,18.653,0,0,1,3.721-3.65,12.275,12.275,0,0,1,9.545-2.626.244.244,0,0,1,.2.281.251.251,0,0,1-.281.192c-7.348-1.31-12.739,6.009-12.793,6.084a.241.241,0,0,1-.194.1" transform="translate(1209.131 3873.036)" fill="#0d1321"/>
        <path id="Caminho_11369" data-name="Caminho 11369" d="M276.8,317.806a.242.242,0,0,1-.165-.416c.062-.06,6.372-5.974,13.841-5.395a.24.24,0,1,1-.035.479c-7.292-.562-13.414,5.206-13.476,5.264a.24.24,0,0,1-.165.067" transform="translate(1209.996 3874.025)" fill="#0d1321"/>
        <path id="Caminho_11370" data-name="Caminho 11370" d="M279.616,316.947a.25.25,0,0,1-.144-.048,22.306,22.306,0,0,0-4.46-2.607.24.24,0,1,1,.162-.452,22.392,22.392,0,0,1,4.587,2.672.242.242,0,0,1,.048.339.245.245,0,0,1-.192.1" transform="translate(1208.42 3875.753)" fill="#0d1321"/>
        <path id="Caminho_11371" data-name="Caminho 11371" d="M447.606,644.085s-30.809-51.02-24.618-76.74c9.889-41.08,46.7-36.048,32.495-68.824s23.812-39.633,45.309-57.346,58.86-26.34,64.8-9.229S533.015,444.7,532.969,466.23s21.328,44.736-1.566,54.86-45.041-3.34-27.038,26.026,26.7,94.576-56.759,96.969" transform="translate(1344.542 3976.334)" fill="#e0a372"/>
        <path id="Caminho_11372" data-name="Caminho 11372" d="M438.239,617.553H438.2a.724.724,0,0,1-.685-.758,393.273,393.273,0,0,1,15.207-83.809c12.095-39.8,36.31-90.081,82.993-103.559a.721.721,0,1,1,.4,1.385c-88.244,25.48-97.081,184.453-97.159,186.055a.724.724,0,0,1-.721.685" transform="translate(1358.727 3982.546)" fill="#fceee7"/>
        <path id="Caminho_11373" data-name="Caminho 11373" d="M448.1,537.063h-.031a.725.725,0,0,1-.668-.539c-.083-.319-8.389-32.075-17.461-47.556a.721.721,0,0,1,1.245-.729c7.779,13.27,14.965,38.252,17.026,45.744,12.166-30.8,44.1-38.969,44.428-39.05a.721.721,0,1,1,.346,1.4c-.329.081-32.97,8.458-44.2,40.249a.724.724,0,0,1-.681.481" transform="translate(1351.635 4036.585)" fill="#fceee7"/>
        <path id="Caminho_11374" data-name="Caminho 11374" d="M450.361,506.176a.7.7,0,0,1-.154-.017.723.723,0,0,1-.562-.8c.046-.335,4.4-33.682-6.176-52.909a.72.72,0,1,1,1.262-.695c8.62,15.669,7.554,40.353,6.748,49.873,8.577-12.7,39.612-26.923,41.053-27.579a.722.722,0,0,1,.6,1.314c-.383.173-38.138,17.468-42.08,30.3a.716.716,0,0,1-.689.51" transform="translate(1364.144 4002.857)" fill="#fceee7"/>
        <path id="Caminho_11375" data-name="Caminho 11375" d="M458.257,473.44a.732.732,0,0,1-.358-.094.724.724,0,0,1-.271-.983c.129-.227,12.883-23.017,11.946-34.983a.722.722,0,1,1,1.439-.114c.691,8.818-5.46,22.717-9.266,30.355,10.259-9.649,33.74-24.225,34.913-24.953a.722.722,0,1,1,.758,1.229c-.337.208-33.809,20.983-38.536,29.182a.721.721,0,0,1-.625.36" transform="translate(1377.225 3989.201)" fill="#fceee7"/>
        <path id="Caminho_11376" data-name="Caminho 11376" d="M432.609,612.85s2.84-59.531,22.311-77.444c31.1-28.6,58.867-3.913,65.328-39.05s41.855-19.644,69.573-22.376,63.556,10.917,58.956,28.437-34.161-7.556-46.192,10.294-7.211,49.034-31.864,44.687-35.542-27.872-36.953,6.545-30.521,93.415-101.16,48.907" transform="translate(1354.192 4022.711)" fill="#16949e"/>
        <path id="Caminho_11377" data-name="Caminho 11377" d="M441.128,589.276a.721.721,0,0,1-.579-1.153A393.126,393.126,0,0,1,499.87,527c32.222-26.317,80.353-54.571,126.616-39.758a.722.722,0,0,1-.441,1.376c-87.5-28.025-183.383,99.083-184.339,100.371a.719.719,0,0,1-.579.29" transform="translate(1361.397 4032.215)" fill="#fceee7"/>
        <path id="Caminho_11378" data-name="Caminho 11378" d="M449.983,552.12a.714.714,0,0,1-.427-.141.726.726,0,0,1-.254-.82c.11-.31,10.9-31.308,11.994-49.216a.672.672,0,0,1,.762-.677.723.723,0,0,1,.677.764c-.933,15.354-8.881,40.1-11.348,47.473,27.26-18.8,58.333-7.792,58.654-7.679a.722.722,0,0,1-.5,1.356c-.315-.117-32.085-11.346-59.131,8.8a.715.715,0,0,1-.431.143" transform="translate(1369.581 4048.949)" fill="#fceee7"/>
        <path id="Caminho_11379" data-name="Caminho 11379" d="M475.068,527.729a.72.72,0,0,1-.539-1.2c.223-.252,22.413-25.52,24.343-47.377a.722.722,0,1,1,1.439.127c-1.574,17.815-16.212,37.72-22.184,45.174,14.2-5.768,47.895-.287,49.457-.031a.725.725,0,0,1,.594.831.733.733,0,0,1-.831.593c-.41-.067-41.4-6.738-51.826,1.722a.711.711,0,0,1-.454.162" transform="translate(1392.76 4027.911)" fill="#fceee7"/>
        <path id="Caminho_11380" data-name="Caminho 11380" d="M497.555,501.724a.722.722,0,0,1-.325-1.366c.235-.117,23.525-11.939,29.411-22.4a.722.722,0,0,1,1.258.708c-4.339,7.708-17.189,15.821-24.606,20.046,13.9-2.3,41.519-1.32,42.892-1.272a.724.724,0,0,1,.7.749.738.738,0,0,1-.748.695c-.394-.012-39.768-1.406-48.26,2.765a.742.742,0,0,1-.317.073" transform="translate(1413.537 4027.079)" fill="#fceee7"/>
        <path id="Caminho_11381" data-name="Caminho 11381" d="M272.667,596.4s-16.427-57.29-39.491-70.254c-36.837-20.7-58.2,9.7-72.547-23.011s-45.247-9.514-72.853-5.811-59.352,25.214-50.852,41.211,31.514-15.2,47.32-.583,18.274,46.067,41.272,36.179,28.195-35.285,37.468-2.111S214.13,655.935,272.667,596.4" transform="translate(987.271 4034.748)" fill="#ac1b18"/>
        <path id="Caminho_11382" data-name="Caminho 11382" d="M247.036,571.489a.719.719,0,0,1-.464-.169c-1.228-1.031-123.75-102.718-202.458-55.379a.722.722,0,1,1-.745-1.237c22.984-13.82,64.6-23.367,132.361,9.634A393.194,393.194,0,0,1,247.5,570.215a.722.722,0,0,1-.464,1.274" transform="translate(994.202 4049.596)" fill="#fceee7"/>
        <path id="Caminho_11383" data-name="Caminho 11383" d="M107.033,557.334a.721.721,0,0,1-.4-1.324c.281-.185,28-18.03,58.846-5.991-4.091-6.607-17.5-28.872-21.94-43.6a.722.722,0,1,1,1.381-.417c5.17,17.183,22.794,44.874,22.969,45.151A.721.721,0,0,1,167,552.2c-30.944-13.393-59.289,4.829-59.572,5.012a.717.717,0,0,1-.394.119" transform="translate(1052.682 4052.855)" fill="#fceee7"/>
        <path id="Caminho_11384" data-name="Caminho 11384" d="M81.784,543.111a.722.722,0,0,1-.281-1.387c1.46-.61,33-13.672,48.143-11.323-7.527-5.888-26.34-21.9-31.96-38.877a.722.722,0,1,1,1.37-.454c6.9,20.831,34.294,40.331,34.571,40.526a.722.722,0,0,1-.731,1.239c-12.091-5.851-50.45,10.061-50.835,10.22a.723.723,0,0,1-.277.056" transform="translate(1029.353 4039.074)" fill="#fceee7"/>
        <path id="Caminho_11385" data-name="Caminho 11385" d="M58.5,520.579a.721.721,0,0,1-.192-1.416c1.331-.367,27.989-7.658,42.04-8.612C92.16,508.142,77.789,503.2,71.8,496.69a.722.722,0,0,1,1.062-.977c8.131,8.826,33.511,14.984,33.767,15.046a.723.723,0,0,1,.535.868.714.714,0,0,1-.864.537c-9.235-2.1-47.223,8.285-47.6,8.389a.672.672,0,0,1-.192.027" transform="translate(1007.837 4043.609)" fill="#fceee7"/>
        <path id="Caminho_11386" data-name="Caminho 11386" d="M204.618,638.155S232,585.219,224.13,559.96c-12.574-40.341-48.976-32.9-36.955-66.537s-26.369-37.978-48.986-54.236-60.466-22.409-65.267-4.943,33.345,10.586,34.81,32.06-18.338,46.042,5.172,54.641,44.726-6.3,28.695,24.185-20.414,96.13,63.02,93.025" transform="translate(1021.447 3977.312)" fill="#0d1321"/>
        <path id="Caminho_11387" data-name="Caminho 11387" d="M191.01,611.881a.721.721,0,0,1-.716-.639c-.185-1.593-19.469-159.638-109.2-179.252a.721.721,0,0,1-.552-.858.731.731,0,0,1,.86-.55c26.2,5.726,63.018,27.354,89.631,97.869a393.164,393.164,0,0,1,20.691,82.625.718.718,0,0,1-.635.8.608.608,0,0,1-.083.006" transform="translate(1028.861 3983.625)" fill="#fceee7"/>
        <path id="Caminho_11388" data-name="Caminho 11388" d="M158.671,535.3a.724.724,0,0,1-.664-.437c-13.314-31.006-46.425-37.193-46.758-37.251a.721.721,0,1,1,.252-1.42c.333.058,32.737,6.113,46.9,36.041,1.562-7.613,7.09-33.012,13.978-46.765a.722.722,0,0,1,1.291.646c-8.035,16.042-14.232,48.276-14.294,48.6a.723.723,0,0,1-.629.583c-.027,0-.054,0-.079,0" transform="translate(1056.697 4033.991)" fill="#fceee7"/>
        <path id="Caminho_11389" data-name="Caminho 11389" d="M147.41,504.633a.725.725,0,0,1-.675-.464c-4.777-12.547-43.589-27.317-43.981-27.467a.721.721,0,1,1,.51-1.349c1.48.558,33.386,12.706,42.781,24.814-1.433-9.445-4.121-34,3.448-50.209a.721.721,0,0,1,1.306.61c-9.289,19.889-2.748,52.87-2.68,53.2a.722.722,0,0,1-.508.835.711.711,0,0,1-.2.029" transform="translate(1048.965 4001.161)" fill="#fceee7"/>
        <path id="Caminho_11390" data-name="Caminho 11390" d="M133.136,472.109a.721.721,0,0,1-.6-.321c-5.256-7.867-40.026-26.394-40.376-26.578a.722.722,0,0,1,.677-1.276c1.218.646,25.609,13.645,36.48,22.6-4.3-7.373-11.352-20.837-11.244-29.68a.721.721,0,0,1,.722-.712h.008a.724.724,0,0,1,.714.731c-.146,12,14.08,33.9,14.222,34.121a.723.723,0,0,1-.2,1,.741.741,0,0,1-.4.119" transform="translate(1039.255 3988.776)" fill="#fceee7"/>
        <path id="Caminho_11391" data-name="Caminho 11391" d="M249.642,691.625A7.7,7.7,0,0,1,242.525,681l95.969-233.919a7.7,7.7,0,0,1,14.238,5.843L256.765,686.85a7.7,7.7,0,0,1-7.123,4.775" transform="translate(1178.015 3994.477)" fill="#0d1321"/>
        <path id="Caminho_11392" data-name="Caminho 11392" d="M395.763,691.626a7.7,7.7,0,0,1-7.123-4.776L292.672,452.929a7.7,7.7,0,0,1,14.238-5.843l95.969,233.919a7.7,7.7,0,0,1-7.115,10.621" transform="translate(1224.352 3994.476)" fill="#0d1321"/>
        <path id="Caminho_11393" data-name="Caminho 11393" d="M576.841,536.977c0,104.277-84.534,188.81-188.81,188.81s-188.812-84.534-188.812-188.81,84.534-188.81,188.812-188.81,188.81,84.534,188.81,188.81" transform="translate(1138.533 3907.486)" fill="#ac1b18"/>
        <path id="Caminho_11394" data-name="Caminho 11394" d="M531,522.106A157.845,157.845,0,1,1,373.158,364.261,157.845,157.845,0,0,1,531,522.106" transform="translate(1153.405 3922.357)" fill="#fef6ec"/>
        <path id="Caminho_11395" data-name="Caminho 11395" d="M488.017,508.16A128.806,128.806,0,1,1,359.211,379.354,128.805,128.805,0,0,1,488.017,508.16" transform="translate(1167.351 3936.303)" fill="#ac1b18"/>
        <path id="Caminho_11396" data-name="Caminho 11396" d="M427.9,488.657a88.2,88.2,0,1,1-88.2-88.2,88.2,88.2,0,0,1,88.2,88.2" transform="translate(1186.854 3955.806)" fill="#fef6ec"/>
        <path id="Caminho_11397" data-name="Caminho 11397" d="M382.883,474.049a57.781,57.781,0,1,1-57.78-57.78,57.78,57.78,0,0,1,57.78,57.78" transform="translate(1201.461 3970.414)" fill="#ac1b18"/>
        <path id="Caminho_11398" data-name="Caminho 11398" d="M338.79,459.745A27.995,27.995,0,1,1,310.8,431.75a27.994,27.994,0,0,1,27.995,27.995" transform="translate(1215.766 3984.719)" fill="#fef6ec"/>
        <path id="Caminho_11399" data-name="Caminho 11399" d="M319.947,453.631a15.264,15.264,0,1,1-15.263-15.265,15.264,15.264,0,0,1,15.263,15.265" transform="translate(1221.88 3990.832)" fill="#cb3f44"/>
        <g id="Grupo_5602" data-name="Grupo 5602" transform="translate(1338.413 4413.161)" opacity="0.2">
          <g id="Grupo_908" data-name="Grupo 908">
            <g id="Grupo_907" data-name="Grupo 907" clip-path="url(#clip-path-2)">
              <g id="Grupo_906" data-name="Grupo 906" transform="translate(0 -0.002)">
                <g id="Grupo_905" data-name="Grupo 905" clip-path="url(#clip-path-3)">
                  <path id="Caminho_1573" data-name="Caminho 1573" d="M199.562,461.334c0,104.277,84.534,188.81,188.811,188.81A188,188,0,0,0,505.754,609.22L202.159,430.03a190.107,190.107,0,0,0-2.6,31.3" transform="translate(-199.562 -430.03)" fill="#ac1b18"/>
                </g>
              </g>
            </g>
          </g>
        </g>
        <g id="Grupo_5603" data-name="Grupo 5603" transform="translate(1517.068 4436.788)" opacity="0.2">
          <g id="Grupo_913" data-name="Grupo 913">
            <g id="Grupo_912" data-name="Grupo 912" clip-path="url(#clip-path-4)">
              <g id="Grupo_911" data-name="Grupo 911">
                <g id="Grupo_910" data-name="Grupo 910" clip-path="url(#clip-path-4)">
                  <path id="Caminho_1574" data-name="Caminho 1574" d="M484.653,457.7H300.114a7.7,7.7,0,1,1,0-15.392H484.653a7.7,7.7,0,0,1,0,15.392" transform="translate(-292.416 -442.311)" fill="#9b1134"/>
                </g>
              </g>
            </g>
          </g>
        </g>
        <path id="Caminho_11400" data-name="Caminho 11400" d="M460.576,335.106c-4.535,4.533-108.838,108.838-108.838,108.838l52.268-.335L511.938,335.676Z" transform="translate(1279.465 3895.417)" fill="#16949e"/>
        <path id="Caminho_11401" data-name="Caminho 11401" d="M460.576,359.773c-4.535,4.533-108.838,108.838-108.838,108.838l.337-52.268L460.007,308.411Z" transform="translate(1279.465 3870.75)" fill="#16949e"/>
        <path id="Caminho_11402" data-name="Caminho 11402" d="M301.049,559.025a7.7,7.7,0,0,1-5.443-13.137l211.5-211.5a7.695,7.695,0,1,1,10.88,10.884L306.489,556.77a7.669,7.669,0,0,1-5.439,2.255" transform="translate(1225.514 3892.675)" fill="#0d1321"/>
        <path id="Caminho_11403" data-name="Caminho 11403" d="M438.326,389.813a50.543,50.543,0,1,1,39.86,38.221c-5.218,5.312-16.458,16.6-16.789,15.637-.264-.772,2.863-11.29,5.307-19.269a50.451,50.451,0,0,1-28.378-34.588" transform="translate(1358.253 3888.688)" fill="#e0a372"/>
        <path id="Caminho_11404" data-name="Caminho 11404" d="M500.065,352.913H453.812a5.324,5.324,0,0,1,0-10.648h46.254a5.324,5.324,0,0,1,0,10.648" transform="translate(1368.865 3902.032)" fill="#fef6ec"/>
        <path id="Caminho_11405" data-name="Caminho 11405" d="M500.065,363.022H453.812a5.324,5.324,0,1,1,0-10.648h46.254a5.324,5.324,0,1,1,0,10.648" transform="translate(1368.865 3911.373)" fill="#fef6ec"/>
        <path id="Caminho_11406" data-name="Caminho 11406" d="M482.042,372.841H453.813a5.324,5.324,0,1,1,0-10.648h28.229a5.324,5.324,0,1,1,0,10.648" transform="translate(1368.866 3920.446)" fill="#fef6ec"/>
        <path id="Caminho_11407" data-name="Caminho 11407" d="M191.973,393.152A50.538,50.538,0,1,0,163.392,440.4c6.415,3.775,20.2,11.763,20.268,10.748.056-.816-5.691-10.165-10.122-17.235a50.449,50.449,0,0,0,18.436-40.764" transform="translate(1038.469 3903.944)" fill="#16949e"/>
        <path id="Caminho_11408" data-name="Caminho 11408" d="M116.15,373.949a8.225,8.225,0,1,1-8.225-8.225,8.225,8.225,0,0,1,8.225,8.225" transform="translate(1046.576 3923.709)" fill="#0d1321"/>
        <path id="Caminho_11409" data-name="Caminho 11409" d="M129.19,373.949a8.225,8.225,0,1,1-8.225-8.225,8.225,8.225,0,0,1,8.225,8.225" transform="translate(1058.625 3923.709)" fill="#0d1321"/>
        <path id="Caminho_11410" data-name="Caminho 11410" d="M142.743,373.949a8.225,8.225,0,1,1-8.225-8.225,8.225,8.225,0,0,1,8.225,8.225" transform="translate(1071.148 3923.709)" fill="#0d1321"/>
        <path id="Caminho_11411" data-name="Caminho 11411" d="M402.463,356s-64.374-14.369-93.131-9.191c-23.669,4.26-23.021,25.309-15.015,19.386,5.054-3.74,2.8-14.825,24.9-10.2s91.978,49.355,83.245,0" transform="translate(1221.779 3905.188)" fill="#e2876a"/>
        <path id="Caminho_11412" data-name="Caminho 11412" d="M289.484,362.366a.2.2,0,0,1-.058-.008.239.239,0,0,1-.175-.291c.119-.485,3.038-11.929,10.8-13.384a.241.241,0,1,1,.09.473c-7.456,1.395-10.392,12.91-10.421,13.026a.24.24,0,0,1-.233.183" transform="translate(1221.719 3907.959)" fill="#0d1321"/>
        <path id="Caminho_11413" data-name="Caminho 11413" d="M290.575,364.141l-.019,0a.24.24,0,0,1-.221-.26c.008-.077.745-7.908,9.316-14.567a.241.241,0,1,1,.3.379c-8.408,6.532-9.126,14.153-9.131,14.228a.244.244,0,0,1-.241.221" transform="translate(1222.726 3908.497)" fill="#0d1321"/>
        <path id="Caminho_11414" data-name="Caminho 11414" d="M297.431,352.142a.243.243,0,0,1-.083-.013c-1.772-.633-2.884-3.779-2.93-3.912a.24.24,0,1,1,.454-.158c.012.031,1.081,3.061,2.638,3.617a.239.239,0,0,1,.146.306.237.237,0,0,1-.225.16" transform="translate(1226.487 3907.238)" fill="#0d1321"/>
        <path id="Caminho_11415" data-name="Caminho 11415" d="M167.45,455.66c3.163,4.485,20.089,16.073,42.284,12.15,31.017-5.48,52.759-38.581,55.512-51.751s7.765-6.022,4.612,8.916c-3.71,17.572-18.938,56.888-50.286,63.014-27.121,5.3-62.744-7.157-62.744-7.157s-3.053-14.226,10.623-25.172" transform="translate(1099.094 3963.835)" fill="#e3896e"/>
        <path id="Caminho_11416" data-name="Caminho 11416" d="M205.92,437.568S194.507,461.878,182,463.691l-4.874-18.765s24.5-3.929,28.8-7.357" transform="translate(1118.118 3990.094)" fill="#d3513e"/>
        <path id="Caminho_11417" data-name="Caminho 11417" d="M191.706,489.312s11.527,49.382,7.585,66.136c-8.164,34.686-57.744,79.485-53.969,81.973s18.292,3.831,11.633,4.793-22.94,3.04-21.4-1.964c2.676-8.666,36.441-72.547,34.511-86.822s-21.936-65.45-21.936-65.45,31.8-9.5,43.573,1.333" transform="translate(1079.614 4033.113)" fill="#e3896e"/>
        <path id="Caminho_11418" data-name="Caminho 11418" d="M186.393,485.269s69.221,26.663,66.113,54.956c-2.176,19.827-35.4,62.885-32.227,66.706s11.248,10.041,12.506,12.506-22.613-11.477-22.613-11.477l21.085-62.229-87.813-49.573a159.456,159.456,0,0,1,42.948-10.89" transform="translate(1086.997 4034.172)" fill="#e3896e"/>
        <path id="Caminho_11419" data-name="Caminho 11419" d="M178.686,549.036l17.657,7.9.521-1.73s6.89,5.064,7.169,6.842-26.513-9.3-26.513-9.3Z" transform="translate(1118.483 4093.094)" fill="#0d1321"/>
        <path id="Caminho_11420" data-name="Caminho 11420" d="M135.758,565.473l19.292,1.38-.1-1.8s8.206,2.4,9.074,3.979-29.476.8-29.476.8Z" transform="translate(1078.776 4107.89)" fill="#0d1321"/>
        <path id="Caminho_11421" data-name="Caminho 11421" d="M148.472,413.873s14.792-22.024,32.206-10.7,10.2,42.2-8.572,43.808-33.734-18.9-23.635-33.107" transform="translate(1088.635 3955.321)" fill="#dd6923"/>
        <path id="Caminho_11422" data-name="Caminho 11422" d="M160.376,460.863l17.364-4.408s-3.885-20.018-2.692-29.372c.831-6.5-18.405-14.724-18.405-14.724Z" transform="translate(1099.192 3966.8)" fill="#e3896e"/>
        <path id="Caminho_11423" data-name="Caminho 11423" d="M176.5,405.583s16.822,26.276,3.775,36.312c-8.273,6.363-27.45-18.03-27.335-25.636s21-17.545,23.56-10.676" transform="translate(1095.768 3958.408)" fill="#e3896e"/>
        <path id="Caminho_11424" data-name="Caminho 11424" d="M159.864,417.171s-6-5.154-6.651-1.147,6.649,8.906,8.352,6.628-1.7-5.482-1.7-5.482" transform="translate(1095.985 3968.777)" fill="#e3896e"/>
        <path id="Caminho_11425" data-name="Caminho 11425" d="M178.578,403.439s-10.667-1.755-12.148,12.312c-1.6,15.154-15.177,10.43-15.177,10.43s-8.6-25.988,27.325-22.742" transform="translate(1093.379 3958.299)" fill="#dd6923"/>
        <path id="Caminho_11426" data-name="Caminho 11426" d="M162.132,415.177a1.183,1.183,0,1,1-1.558-.612,1.183,1.183,0,0,1,1.558.612" transform="translate(1102.169 3968.747)" fill="#0d1321"/>
        <path id="Caminho_11427" data-name="Caminho 11427" d="M173.847,427.14a17.289,17.289,0,0,1-15.56-6.6c-1.478-1.843.733,8.1,5.961,12.46a40.2,40.2,0,0,0,10.984,6.538s-1.68-9.17-1.385-12.4" transform="translate(1100.297 3974.154)" fill="#d3513e"/>
        <path id="Caminho_11428" data-name="Caminho 11428" d="M159.178,420.342a.24.24,0,0,1-.235-.191c-.466-2.118-1.266-3.482-2.313-3.942a2.345,2.345,0,0,0-1.951.087.246.246,0,0,1-.329-.087.243.243,0,0,1,.087-.329,2.787,2.787,0,0,1,2.386-.112c1.21.531,2.082,1.97,2.59,4.283a.241.241,0,0,1-.235.291" transform="translate(1097.044 3969.747)" fill="#0d1321"/>
        <path id="Caminho_11429" data-name="Caminho 11429" d="M164.459,417.918a2.191,2.191,0,1,1-2.884-1.133,2.192,2.192,0,0,1,2.884,1.133" transform="translate(1102.534 3970.721)" fill="#d3513e"/>
        <path id="Caminho_11430" data-name="Caminho 11430" d="M157.027,419.214a.248.248,0,0,1-.2-.1c-1.718-2.426-1.431-3.211-1.36-3.344a.241.241,0,0,1,.429.219c-.012.044-.173.733,1.324,2.848a.239.239,0,0,1-.058.335.245.245,0,0,1-.137.044" transform="translate(1098.05 3969.837)" fill="#0d1321"/>
        <path id="Caminho_11431" data-name="Caminho 11431" d="M163.067,413.319c.439,1-1.066.464-2.378,1.037s-1.941,2.043-2.38,1.037.271-2.282,1.585-2.855a2.353,2.353,0,0,1,3.173.781" transform="translate(1100.612 3966.711)" fill="#dd6923"/>
        <path id="Caminho_11432" data-name="Caminho 11432" d="M168.924,410.764c.439,1-1.066.464-2.378,1.037s-1.941,2.043-2.38,1.037.271-2.282,1.585-2.855a2.353,2.353,0,0,1,3.173.781" transform="translate(1106.024 3964.35)" fill="#dd6923"/>
        <path id="Caminho_11433" data-name="Caminho 11433" d="M171.206,415.575a2.191,2.191,0,1,1-2.884-1.131,2.191,2.191,0,0,1,2.884,1.131" transform="translate(1108.769 3968.557)" fill="#d3513e"/>
        <path id="Caminho_11434" data-name="Caminho 11434" d="M168.016,418.918c-.264,0-.972-.292-3.371-2.241a.241.241,0,0,1-.037-.339.238.238,0,0,1,.339-.033,25.771,25.771,0,0,0,2.778,2.018,48.309,48.309,0,0,0-2.7-4.477.24.24,0,1,1,.4-.262c1.372,2.08,2.982,4.652,2.867,5.114a.345.345,0,0,1-.142.183.251.251,0,0,1-.135.037" transform="translate(1106.504 3967.832)" fill="#0d1321"/>
        <path id="Caminho_11435" data-name="Caminho 11435" d="M167.452,421.157c-1.356,0-2.813-2.5-2.984-2.8a.242.242,0,0,1,.092-.327.233.233,0,0,1,.327.09c.612,1.077,1.889,2.715,2.692,2.536.358-.081.991-.641,1.2-3.477a.24.24,0,1,1,.479.033c-.175,2.436-.689,3.715-1.57,3.914a1.06,1.06,0,0,1-.233.027" transform="translate(1106.395 3971.051)" fill="#0d1321"/>
        <path id="Caminho_11436" data-name="Caminho 11436" d="M167.894,412.954a1.183,1.183,0,1,1-1.558-.612,1.184,1.184,0,0,1,1.558.612" transform="translate(1107.492 3966.693)" fill="#0d1321"/>
        <path id="Caminho_11437" data-name="Caminho 11437" d="M154.27,426.774c-.316,0-.637-.008-.97-.021a.241.241,0,0,1,.01-.481h.01c.331.015.654.021.966.021,8.625,0,10.111-5.247,11.681-10.79a35.813,35.813,0,0,1,1.749-5.176c3.169-6.917,7.419-7.173,7.6-7.18h.01a.241.241,0,0,1,.012.481c-.042,0-4.148.273-7.184,6.9a35.767,35.767,0,0,0-1.724,5.1c-1.551,5.482-3.153,11.142-12.158,11.142" transform="translate(1095.89 3958.289)" fill="#d0411e"/>
        <path id="Caminho_11438" data-name="Caminho 11438" d="M152.385,425.128a.24.24,0,0,1-.04-.477c.09-.017,9.27-1.768,10.986-13.749.573-4,2.057-6.672,4.408-7.962,3.438-1.882,7.421-.106,7.588-.033a.243.243,0,0,1,.119.319.248.248,0,0,1-.319.121c-.038-.019-3.94-1.749-7.159.015-2.211,1.212-3.611,3.771-4.16,7.608-1.766,12.337-11.286,14.136-11.383,14.153l-.04,0" transform="translate(1095.036 3957.301)" fill="#d0411e"/>
        <path id="Caminho_11439" data-name="Caminho 11439" d="M184.6,417.746s-2.544-3.6-4.929-4.41c-12.066-4.085-15.629,18.288-31.131,3-8.283-8.171-11.434-5.51-28.847,9.718-7.69,6.726-9.41-7.04-12.173-4.416-6.049,5.751,5.041,31.525,25.2,15.708,8.962-7.036,6.143,5.312,23,8.743,22.278,4.539,34.8-16.139,28.878-28.339" transform="translate(1052.282 3966.282)" fill="#dd6923"/>
        <path id="Caminho_11440" data-name="Caminho 11440" d="M159.93,430.888c-5.178,0-10.446-4.348-14.9-8.019a49.957,49.957,0,0,0-4.868-3.721c-4.456-2.746-7.685.575-11.421,4.425-1.12,1.152-2.276,2.344-3.5,3.388-3.4,2.907-6.719,4.148-9.845,3.71a10.316,10.316,0,0,1-6.667-4.233.238.238,0,0,1,.069-.331.241.241,0,0,1,.333.069,10.031,10.031,0,0,0,6.34,4.019c2.98.417,6.168-.791,9.458-3.6,1.206-1.033,2.355-2.217,3.467-3.361,3.719-3.829,7.234-7.442,12.017-4.5a49.193,49.193,0,0,1,4.922,3.758c5.807,4.791,13.031,10.755,19.419,6.367,3.65-2.505,5.659-6.113,7.271-9.008,1.466-2.638,2.626-4.722,4.475-5.245a4.641,4.641,0,0,1,3.565.7.243.243,0,0,1,.092.327.247.247,0,0,1-.327.094,4.215,4.215,0,0,0-3.2-.662c-1.657.47-2.773,2.476-4.187,5.016-1.637,2.942-3.675,6.6-7.417,9.174a8.836,8.836,0,0,1-5.1,1.626" transform="translate(1054.885 3968.767)" fill="#d0411e"/>
        <path id="Caminho_11441" data-name="Caminho 11441" d="M152.318,434.679c-9.156,0-18.551-6.244-22.046-8.566-2.272-1.51-4.344-2.074-6.147-1.693a5.047,5.047,0,0,0-3.019,1.966.233.233,0,0,1-.331.075.238.238,0,0,1-.077-.329,5.424,5.424,0,0,1,3.317-2.18c1.938-.416,4.135.173,6.522,1.759,4.179,2.778,16.895,11.236,27.3,7.592,5.337-1.866,9.3-6.705,11.769-14.386a.24.24,0,0,1,.458.146c-2.521,7.833-6.582,12.776-12.068,14.694a17.092,17.092,0,0,1-5.682.922" transform="translate(1065.945 3972.706)" fill="#d0411e"/>
        <path id="Caminho_11442" data-name="Caminho 11442" d="M146.956,420.338a9.593,9.593,0,0,1-1.837-.189,23.4,23.4,0,0,1-6.767-3.015c-5.291-3.028-10.767-6.165-18.4-.373a.235.235,0,0,1-.337-.048.242.242,0,0,1,.046-.337c7.887-5.978,13.755-2.626,18.931.341a22.982,22.982,0,0,0,6.621,2.959c4.117.808,6.08-1.195,8.36-3.513,1.666-1.693,3.557-3.613,6.542-4.479,6.959-2.018,10.882,6.419,10.921,6.5a.241.241,0,1,1-.439.2c-.035-.083-3.777-8.137-10.349-6.24-2.863.831-4.627,2.622-6.332,4.356-1.934,1.964-3.777,3.837-6.957,3.837" transform="translate(1064.931 3965.889)" fill="#d0411e"/>
        <path id="Caminho_11443" data-name="Caminho 11443" d="M156.022,437.724c-7.654,0-14.12-5.122-17.774-8.014-.464-.367-.885-.7-1.258-.985-3.419-2.594-4.614-1.759-6.782-.239a17.538,17.538,0,0,1-5.67,2.859c-7.123,2.028-12.606-3.844-12.662-3.906a.238.238,0,0,1,.015-.339.244.244,0,0,1,.341.015c.052.06,5.335,5.712,12.177,3.765a17.107,17.107,0,0,0,5.522-2.79c2.2-1.543,3.652-2.557,7.35.25.375.283.8.62,1.268.991,4.023,3.186,11.506,9.13,20.141,7.692,6.115-1.01,11.833-5.582,17-13.582a.245.245,0,0,1,.331-.073.242.242,0,0,1,.071.333c-5.243,8.121-11.073,12.764-17.324,13.8a16.784,16.784,0,0,1-2.746.223" transform="translate(1057.768 3976.944)" fill="#d0411e"/>
        <path id="Caminho_11444" data-name="Caminho 11444" d="M147.839,421.989a.205.205,0,0,1-.048-.006.241.241,0,0,1-.189-.281c3.688-18.247,23.454-19.973,23.654-19.991a.233.233,0,0,1,.258.221.24.24,0,0,1-.221.26c-.2.015-19.6,1.718-23.217,19.6a.242.242,0,0,1-.237.194" transform="translate(1090.834 3956.961)" fill="#d0411e"/>
        <path id="Caminho_11445" data-name="Caminho 11445" d="M147.809,422.338a.242.242,0,0,1-.229-.166.24.24,0,0,1,.152-.3c.1-.033,9.491-3.288,13.963-16.389a.241.241,0,0,1,.456.154c-4.554,13.339-14.17,16.66-14.267,16.691a.256.256,0,0,1-.075.012" transform="translate(1090.807 3960.295)" fill="#d0411e"/>
        <path id="Caminho_11446" data-name="Caminho 11446" d="M160.155,424.109a11.268,11.268,0,0,1-3.332-.533c-2.382-.746-5.891-2.659-9.081-7.544a.241.241,0,0,1,.069-.333.238.238,0,0,1,.333.069c5.939,9.1,13.014,7.789,13.081,7.781a.23.23,0,0,1,.285.188.24.24,0,0,1-.189.281,6.254,6.254,0,0,1-1.166.091" transform="translate(1090.93 3969.85)" fill="#d0411e"/>
        <path id="Caminho_11447" data-name="Caminho 11447" d="M161.379,428.749c-3.477,0-9.122-1.21-12.806-8.169a.241.241,0,1,1,.425-.225c5.433,10.261,15.236,7.613,15.336,7.588a.243.243,0,0,1,.3.166.238.238,0,0,1-.165.3,12.659,12.659,0,0,1-3.086.344" transform="translate(1091.709 3974.071)" fill="#d0411e"/>
        <path id="Caminho_11448" data-name="Caminho 11448" d="M152.138,616.848l-16.593-7.9s34.24-60.7,33.182-64.79-13.247-47.825-13.247-47.825l43.558,4.339s6.453,29.322,0,50.569c-4.96,16.337-46.9,65.6-46.9,65.6" transform="translate(1079.697 4044.399)" fill="#d04028"/>
        <path id="Caminho_11449" data-name="Caminho 11449" d="M185.82,526.38s-49.02-2.619-43.573-32.316c3.819-20.824,32.531-17.2,37.592-14.246s11.392,43.991,5.982,46.561" transform="translate(1085.5 4027.025)" fill="#dd6822"/>
        <path id="Caminho_11450" data-name="Caminho 11450" d="M204.267,598.3l15.941,6.769s28.92-44.233,28.92-61.636c0-33.1-71.955-61.634-71.955-61.634l-26.709,29.068s68.828,30.752,69.525,36.922c.675,5.966-15.721,50.511-15.721,50.511" transform="translate(1093.482 4030.964)" fill="#dd6822"/>
        <path id="Caminho_11451" data-name="Caminho 11451" d="M171.633,434.564s36.051,11.242,34.209,22.559c-5.67,34.836-14.051,72.051-14.051,72.051s-48.965.645-47.852-3.731c3.209-12.623,20.554-90.879,27.694-90.879" transform="translate(1087.436 3987.319)" fill="#e3896e"/>
        <path id="Caminho_11452" data-name="Caminho 11452" d="M177.973,436.7s11.944,7.788,17.153,7.417,4.466-11.864,4.466-11.864,8.641,4.112,6.961,12.779c-1.212,6.253,4.773,8.458,5.328,23.569.181,4.952-6.746,13.98-7.835,19.24-3.854,18.6-3.854,22.446-3.854,22.446s-44.7-5.13-55.4-15.662c0,0,7.471-45.746,21.128-57.927,3.669-3.271,12.058,0,12.058,0" transform="translate(1088.237 3985.183)" fill="#0d1321"/>
        <path id="Caminho_11453" data-name="Caminho 11453" d="M297.464,356.206a75.94,75.94,0,1,0-108.706,93.136l0,0s37.465,21.809,47.412,47.616c7.431,19.279,13.285,34.463,13.285,34.463L279.2,519.958l29.745-11.465s-5.853-15.186-13.283-34.463c-9.947-25.809,3.188-67.12,3.188-67.12l0,0a75.607,75.607,0,0,0-1.38-50.706" transform="translate(1093.651 3869.963)" fill="#e0a372"/>
        <path id="Caminho_11454" data-name="Caminho 11454" d="M259.439,404.808a72.111,72.111,0,0,0,33.322-26.082A75.953,75.953,0,0,0,161.11,332.059a72.46,72.46,0,0,0,98.329,72.749" transform="translate(1103.147 3869.963)" fill="#f6cbab"/>
        <rect id="Retângulo_1004" data-name="Retângulo 1004" width="63.86" height="44.662" transform="translate(1331.291 4370.742) rotate(-21.08)" fill="#0d1321"/>
        <rect id="Retângulo_1005" data-name="Retângulo 1005" width="27.872" height="32.996" transform="translate(1357.268 4388.246) rotate(-21.079)" fill="#0d1321"/>
        <path id="Caminho_11455" data-name="Caminho 11455" d="M220.488,461.508a.963.963,0,0,1-.9-.616l-37.722-97.868a.962.962,0,0,1,1.776-.737c1.441,3.229,6.17,11.819,10.692,12.764a3.97,3.97,0,0,0,3.648-1.164,5.107,5.107,0,0,0,.833-.972c-5.68-3.935-9.859-13.78-8.881-18.626.341-1.693,1.349-2.055,1.92-2.118,2.465-.3,5.951,4.2,7.937,8.57,2,4.4,2.494,8.4,1.508,11.392a5.435,5.435,0,0,0,5.955-.716,10.161,10.161,0,0,0,2.871-3.523c-3.4-2.969-6.011-9.151-6.12-13.48-.073-2.886,1-4.042,1.916-4.5,1.722-.875,3.625,0,5.091,2.318a18.708,18.708,0,0,1,1.43,14.979c.139.077.277.146.416.21a3.016,3.016,0,0,0,3.44-.6c6.472-5.589,1.368-19.127,1.314-19.263a.963.963,0,0,1,1.8-.691L257.7,446.2a.961.961,0,1,1-1.793.691l-34.392-89.223c.046,3.858-.839,7.912-3.958,10.605a4.9,4.9,0,0,1-5.474.9c-.133-.062-.267-.125-.4-.2a11.771,11.771,0,0,1-3.248,3.956,7.284,7.284,0,0,1-7.95.939,7.027,7.027,0,0,1-1.2,1.433,5.86,5.86,0,0,1-5.339,1.626c-2.359-.494-4.587-2.436-6.469-4.716l33.913,87.98a.964.964,0,0,1-.552,1.245.982.982,0,0,1-.344.063M192.133,354.073a.213.213,0,0,0-.075.012,1.066,1.066,0,0,0-.239.587c-.822,4.077,3,12.872,7.788,16.445.943-3.561-.7-8.583-3.14-12.522-2.061-3.33-3.833-4.521-4.335-4.521m15.131-2.561a1.032,1.032,0,0,0-.475.117c-.585.294-.9,1.291-.86,2.736a19.908,19.908,0,0,0,4.952,11.613,17.135,17.135,0,0,0-1.495-12.722c-.36-.572-1.214-1.745-2.122-1.745" transform="translate(1122.44 3905.711)" fill="#0d1321"/>
        <path id="Caminho_11456" data-name="Caminho 11456" d="M198.344,425.684a.963.963,0,0,1-.346-1.861l59.589-22.967a.962.962,0,1,1,.691,1.8L198.69,425.62a.993.993,0,0,1-.346.064" transform="translate(1136.836 3956.112)" fill="#0d1321"/>
        <path id="Caminho_11457" data-name="Caminho 11457" d="M200.5,431.268a.963.963,0,0,1-.346-1.861L259.74,406.44a.962.962,0,1,1,.691,1.8L200.843,431.2a.993.993,0,0,1-.346.063" transform="translate(1138.826 3961.273)" fill="#0d1321"/>
        <path id="Caminho_11458" data-name="Caminho 11458" d="M202.322,436a.963.963,0,0,1-.346-1.861l59.589-22.967a.962.962,0,1,1,.691,1.8l-59.587,22.969a.993.993,0,0,1-.346.064" transform="translate(1140.512 3965.649)" fill="#0d1321"/>
        <path id="Caminho_11459" data-name="Caminho 11459" d="M158.557,483.093c5.033,2.532,25.6,4,42.731-12.7,23.945-23.342,25.693-68.22,21.3-82.65s8.743-9.7,10,13.189c.954,17.289,4.471,67.9-16,89.059s-54.263,23.8-54.263,23.8-9.947-12.089-3.773-30.692" transform="translate(1099.094 3936.469)" fill="#e3896e"/>
        <path id="Caminho_11460" data-name="Caminho 11460" d="M160.2,434.421s20.531-1.364,23.617-2.168c0,0,7.434,26.646,7.434,28.247s-25.262,10.292-31.96,5.489-8.872-27.908.908-31.567" transform="translate(1096.341 3985.183)" fill="#0d1321"/>
        <path id="Caminho_11461" data-name="Caminho 11461" d="M193.429,481.511S165,483.095,146.346,476.4l2.59-9.776s34.307,11.4,45.236,11.3Z" transform="translate(1089.678 4016.946)" fill="#d3513e"/>
        <path id="Caminho_11462" data-name="Caminho 11462" d="M191.83,389.724a.241.241,0,0,1-.046-.477,54.958,54.958,0,0,1,6.684-.976.241.241,0,0,1,.225.254.264.264,0,0,1-.254.227c-.046,0-.1,0-.154,0a58.76,58.76,0,0,0-6.409.972l-.046,0" transform="translate(1131.483 3944.541)" fill="#0d1321"/>
        <path id="Caminho_11463" data-name="Caminho 11463" d="M194.78,396.087a.241.241,0,0,1-.237-.194c-1.185-5.932-4.144-15.157-4.175-15.252a.24.24,0,1,1,.458-.146c.029.09,3,9.347,4.191,15.306a.243.243,0,0,1-.19.283l-.046,0" transform="translate(1130.345 3937.202)" fill="#0d1321"/>
        <path id="Caminho_11464" data-name="Caminho 11464" d="M196.444,397.111a.242.242,0,0,1-.241-.227c-.319-5.5-4.558-17.035-4.6-17.151a.241.241,0,0,1,.452-.167c.042.115,4.306,11.721,4.629,17.291a.241.241,0,0,1-.227.254Z" transform="translate(1131.483 3936.355)" fill="#0d1321"/>
        <path id="Caminho_11465" data-name="Caminho 11465" d="M219.7,325.636a13.4,13.4,0,1,1-13.4-13.4,13.4,13.4,0,0,1,13.4,13.4" transform="translate(1132.707 3874.289)" fill="#fef6ec"/>
        <path id="Caminho_11466" data-name="Caminho 11466" d="M446.851,401.226s5.9-6.711,9.743-2.665c4.81,5.062,4.514,9.322-3.069,10.836s-8.439-4.121-6.674-8.171" transform="translate(1366.635 3952.852)" fill="#0d1321"/>
        <path id="Caminho_11467" data-name="Caminho 11467" d="M411.388,474.62s-20.612,67.589-13.657,101.812c4.214,20.726,33.717,70.8,33.717,70.8l-15.931,4.826c3.54,1.664,27.058.841,27.058.841s-17.8-49.313-18.975-78.814c-.641-16.016,14.059-64.6,14.059-64.6s1.766,33.286,5.11,54.6c5.43,34.6,24.36,64.137,28.976,75.986,1.2,3.09,7.912,9.024,7.912,9.024,5.218-1.143,4.212-6.592,3.05-10.242-3.19-10.015-11.865-47.918-13.632-67.593-1.443-16.069,6.938-83.555,6.938-83.555s-52.233-15.448-64.624-13.087" transform="translate(1320.64 4024.105)" fill="#e3896e"/>
        <path id="Caminho_11468" data-name="Caminho 11468" d="M404.071,488.887s-9.48,32.32-11.433,45.788c0,0,35.042,5.13,39.633,5.13l8.562-30.973s1,29.049,1.079,33.54c0,0,28.843-1.924,35.625-2.567,0,0,3.2-47.491,2.107-52.285s-64.11-4.656-75.574,1.368" transform="translate(1317.258 4033.116)" fill="#0d1321"/>
        <path id="Caminho_11469" data-name="Caminho 11469" d="M419.185,561.174s10.786-2.043,10.963-1.218c1.056,4.9,5.5,12.887,4.335,14.043s-23.467,1.212-28.628.106,16.341-3.971,15.4-7.969a43.4,43.4,0,0,0-2.072-4.962" transform="translate(1328.731 4103.003)" fill="#0d1321"/>
        <path id="Caminho_11470" data-name="Caminho 11470" d="M442.3,561.174s10.784-2.043,10.963-1.218c1.054,4.9,5.5,12.887,4.335,14.043s-23.467,1.212-28.628.106,16.341-3.971,15.4-7.969a43.469,43.469,0,0,0-2.07-4.962" transform="translate(1350.087 4103.003)" fill="#0d1321"/>
        <path id="Caminho_11471" data-name="Caminho 11471" d="M430.553,496.838H413.325a.24.24,0,0,1,0-.481h17.228a.24.24,0,1,1,0,.481" transform="translate(1336.152 4044.417)" fill="#fdf0e9"/>
        <path id="Caminho_11472" data-name="Caminho 11472" d="M445.17,511.319a.243.243,0,0,1-.113-.029c-.185-.1-18.577-10.084-15.285-24.626a.244.244,0,0,1,.287-.183.24.24,0,0,1,.183.287c-3.213,14.192,14.859,24,15.042,24.1a.24.24,0,0,1-.114.452" transform="translate(1351.207 4035.287)" fill="#fdf0e9"/>
        <path id="Caminho_11473" data-name="Caminho 11473" d="M396.145,506.17a.242.242,0,0,1-.233-.183.239.239,0,0,1,.175-.291c.177-.046,17.655-4.625,19.361-19.223a.231.231,0,0,1,.267-.212.242.242,0,0,1,.21.267c-1.743,14.93-19.542,19.589-19.723,19.633a.191.191,0,0,1-.058.008" transform="translate(1320.277 4035.085)" fill="#fdf0e9"/>
        <path id="Caminho_11474" data-name="Caminho 11474" d="M417.8,505.97l-.029,0a.238.238,0,0,1-.21-.267l2.313-19.011a.235.235,0,0,1,.267-.21.238.238,0,0,1,.21.267l-2.313,19.011a.242.242,0,0,1-.238.212" transform="translate(1340.289 4035.285)" fill="#fdf0e9"/>
        <path id="Caminho_11475" data-name="Caminho 11475" d="M420.617,501.894a.245.245,0,0,1-.142-.046c-5.87-4.3-5.306-14.911-5.279-15.363a.24.24,0,0,1,.24-.225h.013a.242.242,0,0,1,.227.256c-.008.108-.575,10.8,5.083,14.944a.241.241,0,0,1,.052.337.245.245,0,0,1-.194.1" transform="translate(1338.078 4035.086)" fill="#fdf0e9"/>
        <path id="Caminho_11476" data-name="Caminho 11476" d="M455.083,432.949s39.723,32.156,32.62,60.67c-5.612,22.521-39.056,38.406-39.7,46.338-.887,10.957,9.322,11.3,6.168,12.345s-13.6,4.408-12.112-11.535c1.466-15.686,30.446-37.919,30.446-50.273s-26.1-37.307-26.1-37.307Z" transform="translate(1362.793 3985.827)" fill="#e3896e"/>
        <path id="Caminho_11477" data-name="Caminho 11477" d="M457.323,452.042s-3.281-23.506-45.463,18.374c-19.308,19.165,16.87-40.591,14.784-53.424-.787-4.843-4.516-5.9-9.045-3.39s6,3.263,2.615,9.26c-5.664,10.032-52.8,53.015-29.715,72.2,18.3,15.211,47.483-13.716,52.326-15.086l14.44-15.444s10.58-11.542.058-12.487" transform="translate(1309.439 3966.733)" fill="#e38a6e"/>
        <path id="Caminho_11478" data-name="Caminho 11478" d="M408.637,382.441,391.6,401.113l27,24.643,6.78-7.431Z" transform="translate(1316.295 3939.156)" fill="#0d1321"/>
        <path id="Caminho_11479" data-name="Caminho 11479" d="M384.177,409.241l17.041-18.673,27,24.645-6.78,7.429Z" transform="translate(1309.44 3946.666)" fill="#0d1321"/>
        <path id="Caminho_11480" data-name="Caminho 11480" d="M414.178,409.81l-16.6,11.263,7.625,6.957,13.151-14.411Z" transform="translate(1321.822 3964.445)" fill="#0d1321"/>
        <path id="Caminho_11481" data-name="Caminho 11481" d="M414.542,397.938l-14.272,15.639,14.165,12.93a8.39,8.39,0,0,0,11.852-.543l2.963-3.246a8.39,8.39,0,0,0-.542-11.852Z" transform="translate(1324.309 3953.475)" fill="#f1ad08"/>
        <path id="Caminho_11482" data-name="Caminho 11482" d="M408.735,417.814s.729-5.951-1.341-4.825c-1.716.933.721,1.395-3.431,11.411-1.7,4.087,4.77-3.5,4.772-6.586" transform="translate(1327.461 3967.251)" fill="#e38a6e"/>
        <path id="Caminho_11483" data-name="Caminho 11483" d="M406.13,411.465s1.381,4.2.531,6.659-2.13,3.569-3.938.937-2.02-8.731,3.407-7.6" transform="translate(1325.514 3965.846)" fill="#e38a6e"/>
        <path id="Caminho_11484" data-name="Caminho 11484" d="M404.009,419.333a.238.238,0,0,1-.219-.142c-.05-.11-1.2-2.765-.356-7.79a.24.24,0,1,1,.473.079c-.821,4.868.31,7.49.321,7.515a.239.239,0,0,1-.121.317.257.257,0,0,1-.1.021" transform="translate(1326.947 3965.729)" fill="#0d1321"/>
        <path id="Caminho_11485" data-name="Caminho 11485" d="M403.674,419.27a.238.238,0,0,1-.212-.127c-.106-.2-2.569-4.922-.772-7.808a.242.242,0,1,1,.41.256c-1.653,2.653.762,7.279.785,7.325a.24.24,0,0,1-.1.325.243.243,0,0,1-.114.029" transform="translate(1325.942 3965.75)" fill="#0d1321"/>
        <path id="Caminho_11486" data-name="Caminho 11486" d="M397.563,544.13s21.151,7.419,84.582,11.315c0,0,14-106.882,9.195-117.668-4.722-10.6-46.725-17.813-52.541-9.424-13.53,19.51-41.236,115.776-41.236,115.776" transform="translate(1321.809 3978.191)" fill="#ac1b18"/>
        <path id="Caminho_11487" data-name="Caminho 11487" d="M452.481,400.015s6.953,9.6,4.743,17.786-14.727,11.277-17.6,9.028,7.45-26.754,12.856-26.813" transform="translate(1360.218 3955.395)" fill="#0d1321"/>
        <path id="Caminho_11488" data-name="Caminho 11488" d="M444.98,447.983l-16.333.8s5.295-19.69,4.77-29.107c-.368-6.544,19.4-13.38,19.4-13.38Z" transform="translate(1350.531 3961.199)" fill="#e2876a"/>
        <path id="Caminho_11489" data-name="Caminho 11489" d="M438.317,398.8s-18.644,25.016-6.343,35.952c7.8,6.932,29.693-9.264,29.086-23.631-.319-7.6-19.694-18.994-22.742-12.321" transform="translate(1349.726 3952.406)" fill="#e2876a"/>
        <path id="Caminho_11490" data-name="Caminho 11490" d="M435.94,407.566a1.183,1.183,0,1,0,1.6-.5,1.181,1.181,0,0,0-1.6.5" transform="translate(1357.145 3961.784)" fill="#0d1321"/>
        <path id="Caminho_11491" data-name="Caminho 11491" d="M430.453,405.291a1.183,1.183,0,1,0,1.6-.5,1.184,1.184,0,0,0-1.6.5" transform="translate(1352.075 3959.683)" fill="#0d1321"/>
        <path id="Caminho_11492" data-name="Caminho 11492" d="M431.925,419.825a17.292,17.292,0,0,0,15.991-5.476c1.6-1.732-1.308,8.023-6.832,12.006a44.481,44.481,0,0,1-11.286,5.911,124.549,124.549,0,0,0,2.128-12.441" transform="translate(1351.594 3968.451)" fill="#d3513e"/>
        <path id="Caminho_11493" data-name="Caminho 11493" d="M435.43,410.98a2.191,2.191,0,1,0,2.957-.926,2.188,2.188,0,0,0-2.957.926" transform="translate(1356.567 3964.44)" fill="#d3513e"/>
        <path id="Caminho_11494" data-name="Caminho 11494" d="M436.59,406.041c-.51.972,1.027.539,2.3,1.2s1.791,2.176,2.3,1.2a2.355,2.355,0,0,0-1.378-2.963c-1.27-.666-2.713-.416-3.219.554" transform="translate(1357.778 3960.106)" fill="#0d1321"/>
        <path id="Caminho_11495" data-name="Caminho 11495" d="M430.92,403.547c-.508.972,1.029.539,2.3,1.2s1.791,2.176,2.3,1.2a2.69,2.69,0,0,0-4.6-2.409" transform="translate(1352.54 3957.802)" fill="#0d1321"/>
        <path id="Caminho_11496" data-name="Caminho 11496" d="M428.594,408.041a2.191,2.191,0,1,0,2.957-.924,2.191,2.191,0,0,0-2.957.924" transform="translate(1350.251 3961.726)" fill="#d3513e"/>
        <path id="Caminho_11497" data-name="Caminho 11497" d="M431.844,410.987a.27.27,0,0,1-.16-.046.331.331,0,0,1-.127-.194c-.085-.464,1.7-2.921,3.219-4.9a.244.244,0,0,1,.339-.044.24.24,0,0,1,.046.337,48.125,48.125,0,0,0-3.013,4.275,26.067,26.067,0,0,0,2.915-1.818.236.236,0,0,1,.335.06.241.241,0,0,1-.062.335c-2.445,1.712-3.207,2-3.492,2" transform="translate(1353.218 3960.698)" fill="#0d1321"/>
        <path id="Caminho_11498" data-name="Caminho 11498" d="M443.7,411.485s6.349-4.714,6.715-.672-7.265,8.412-8.8,6.018,2.086-5.347,2.086-5.347" transform="translate(1362.166 3963.859)" fill="#e2876a"/>
        <path id="Caminho_11499" data-name="Caminho 11499" d="M442.3,414.693a.272.272,0,0,1-.067-.01.238.238,0,0,1-.164-.3c.671-2.268,1.641-3.644,2.888-4.089a2.8,2.8,0,0,1,2.37.281.24.24,0,0,1-.269.4,2.36,2.36,0,0,0-1.945-.223c-1.076.387-1.968,1.689-2.582,3.767a.24.24,0,0,1-.231.173" transform="translate(1362.923 3964.757)" fill="#0d1321"/>
        <path id="Caminho_11500" data-name="Caminho 11500" d="M442.931,413.682a.248.248,0,0,1-.152-.054.239.239,0,0,1-.035-.339c1.689-2.059,1.524-2.742,1.522-2.748a.234.234,0,0,1,.121-.312.251.251,0,0,1,.323.125c.064.139.291.943-1.593,3.238a.244.244,0,0,1-.187.089" transform="translate(1363.507 3964.814)" fill="#0d1321"/>
        <path id="Caminho_11501" data-name="Caminho 11501" d="M431.025,425.351s-6.078-2.644-2.917-15.273c1.062-4.246.983,2.442,2.555,1.787s4.756-4.454,8.343-1.453-1.051,9.922,5.943,7.735,9.791-6.794,10.4-8.718,1.462,2.572,1.166,3.683-11.094,20.235-25.491,12.239" transform="translate(1349.191 3963.38)" fill="#0d1321"/>
        <path id="Caminho_11502" data-name="Caminho 11502" d="M432.024,415.415a1.562,1.562,0,0,1-.758-.179c-.976-.533-1.2-2.141-.668-4.916a.241.241,0,1,1,.473.088c-.594,3.123-.1,4.119.425,4.406,1.2.652,3.786-1.439,4.689-2.3a.241.241,0,1,1,.331.35c-.31.294-2.74,2.547-4.493,2.547" transform="translate(1352.076 3964.736)" fill="#fcefe9"/>
        <path id="Caminho_11503" data-name="Caminho 11503" d="M439.454,395.017s-8.037-.369-6.049,5.412,16.52,6.465,18.057,12.91-5.689,12.729-3.284,13.913,14.8-13.986,12.4-22.886-21.12-9.349-21.12-9.349" transform="translate(1354.636 3950.772)" fill="#0d1321"/>
        <path id="Caminho_11504" data-name="Caminho 11504" d="M443.754,409.246a.24.24,0,0,1-.235-.193.236.236,0,0,1,.187-.283c.067-.015,6.8-1.489,7-6.047a.263.263,0,0,1,.252-.229.241.241,0,0,1,.229.252c-.215,4.929-7.086,6.432-7.38,6.494a.186.186,0,0,1-.048.006" transform="translate(1364.268 3957.686)" fill="#0d1321"/>
        <path id="Caminho_11505" data-name="Caminho 11505" d="M445.749,411.191a8.624,8.624,0,0,1-1.62-.162.241.241,0,0,1-.19-.281.249.249,0,0,1,.281-.192,5.837,5.837,0,0,0,4.673-.8,7.5,7.5,0,0,0,2.617-4.56.24.24,0,0,1,.273-.206.244.244,0,0,1,.2.273,7.868,7.868,0,0,1-2.811,4.881,5.746,5.746,0,0,1-3.427,1.045" transform="translate(1364.657 3959.99)" fill="#0d1321"/>
        <path id="Caminho_11506" data-name="Caminho 11506" d="M458.08,402.88a.25.25,0,0,1-.181-.081c-9.28-10.553-23.158-2.79-23.3-2.709a.243.243,0,0,1-.329-.089.241.241,0,0,1,.088-.329c.146-.083,14.363-8.037,23.9,2.807a.241.241,0,0,1-.181.4" transform="translate(1355.702 3952.408)" fill="#0d1321"/>
        <path id="Caminho_11507" data-name="Caminho 11507" d="M456.122,403.817a.243.243,0,0,1-.163-.063c-5.42-5.037-10.459-5.63-13.728-5.241a13.714,13.714,0,0,0-5.872,2.072.241.241,0,0,1-.283-.391,13.932,13.932,0,0,1,6.072-2.157c3.38-.4,8.57.194,14.138,5.362a.241.241,0,0,1,.013.341.248.248,0,0,1-.177.077" transform="translate(1357.304 3953.473)" fill="#0d1321"/>
        <path id="Caminho_11508" data-name="Caminho 11508" d="M452.208,403.892c-4.239,0-11.081-1.393-14.011-3.221a.242.242,0,0,1,.256-.41c4.031,2.519,15.317,3.981,16.787,2.613a.24.24,0,1,1,.327.352c-.5.462-1.737.666-3.359.666" transform="translate(1359.251 3955.589)" fill="#0d1321"/>
        <path id="Caminho_11509" data-name="Caminho 11509" d="M433.874,402.344a.21.21,0,0,1-.05-.006.237.237,0,0,1-.185-.285c.818-3.862,2.573-6.34,5.218-7.363,6.084-2.347,14.617,3.721,14.977,3.981a.241.241,0,0,1-.281.391c-.088-.062-8.7-6.18-14.523-3.921-2.484.96-4.141,3.319-4.922,7.013a.24.24,0,0,1-.235.19" transform="translate(1355.139 3949.977)" fill="#0d1321"/>
        <path id="Caminho_11510" data-name="Caminho 11510" d="M459.686,479.8s19.281-20.518,18.617-21.135-20.933-27.492-38.861-31.65c0,0,4.8,11.719,2.905,20.5s11.567,29.349,17.339,32.289" transform="translate(1360.505 3980.346)" fill="#ac1b18"/>
        <path id="Caminho_11511" data-name="Caminho 11511" d="M403.713,447.913s8.223,16.1,12.289,20.462l31.454-43.227S428.8,420.4,403.713,447.913" transform="translate(1327.492 3978.33)" fill="#ac1b18"/>
        <path id="Caminho_11512" data-name="Caminho 11512" d="M427.2,424.712s13.536,0,23.56,4.437c0,0-9.345,11.692-18.557,8.431-5.3-1.876-5-12.868-5-12.868" transform="translate(1349.19 3978.215)" fill="#e38a6e"/>
        <path id="Caminho_11513" data-name="Caminho 11513" d="M448.168,403.881a.24.24,0,0,1-.239-.217.237.237,0,0,1,.215-.262c1.633-.16,5.963-.868,6.39-2.222.121-.385-.115-.837-.7-1.339a2.892,2.892,0,0,0-2.5-.8c-2.059.431-3.494,3.334-3.509,3.363a.234.234,0,0,1-.321.112.239.239,0,0,1-.11-.321c.062-.127,1.557-3.148,3.84-3.623a3.327,3.327,0,0,1,2.913.9c.75.637,1.037,1.258.85,1.847-.6,1.9-6.168,2.5-6.8,2.555l-.023,0" transform="translate(1367.826 3954.005)" fill="#0d1321"/>
        <path id="Caminho_11514" data-name="Caminho 11514" d="M452.076,404.811A10.3,10.3,0,0,1,448,403.738a.24.24,0,1,1,.217-.427c.035.017,3.608,1.814,5.6.593.9-.554,1.36-1.666,1.36-3.306a.241.241,0,0,1,.481,0c0,1.82-.535,3.069-1.591,3.715a3.778,3.778,0,0,1-2,.5" transform="translate(1368.294 3955.71)" fill="#0d1321"/>
        <path id="Caminho_11515" data-name="Caminho 11515" d="M452.428,499.6a8.354,8.354,0,0,1-6.118-2.261,10.463,10.463,0,0,1-2.7-6.853.24.24,0,0,1,.24-.239h0a.241.241,0,0,1,.239.242A10.156,10.156,0,0,0,446.652,497a7.88,7.88,0,0,0,5.776,2.118.633.633,0,0,0,.183,0,.241.241,0,0,1,0,.481l-.187,0" transform="translate(1364.356 4038.771)" fill="#0d1321"/>
        <path id="Caminho_11516" data-name="Caminho 11516" d="M450.218,499.814a6.926,6.926,0,0,1-4.968-1.849c-2.744-2.622-2.774-7.04-2.774-7.227a.241.241,0,1,1,.481,0c0,.044.033,4.4,2.628,6.878a6.622,6.622,0,0,0,5.076,1.7.241.241,0,0,1,.023.481c-.158.008-.312.012-.466.012" transform="translate(1363.31 4039.003)" fill="#0d1321"/>
        <path id="Caminho_11517" data-name="Caminho 11517" d="M443.066,491.246c-.527,0-.9-.033-.939-.039a.238.238,0,0,1-.217-.26.226.226,0,0,1,.262-.217c.029,0,2.9.256,4.233-.7a.241.241,0,0,1,.283.391,6.746,6.746,0,0,1-3.621.825" transform="translate(1362.785 4038.529)" fill="#0d1321"/>
      </g>
    </g>
  </g>
</svg>
